Coordinates
version=1
nRows=65
nColumns=12
inDegrees=yes

Units are S.I. units (second, meters, Newtons, ...)
Angles are in degrees

endheader
time	SC_y	SC_z	SC_x	AC_y	AC_z	AC_x	GH_y	GH_z	GH_yy	EL_x	PS_y
       0.0              -37.17          5.266          29.48           45.1         -7.872          2.594          114.2         0.2188         -179.7          41.88          52.61
   0.03499              -37.17          5.265          29.48           45.1         -7.873          2.594          114.2         0.2291         -179.7          41.89          52.63
   0.06998              -37.17          5.265          29.49           45.1         -7.873          2.593          114.2           0.24         -179.7           41.9          52.64
     0.105              -37.17          5.265          29.49          45.09         -7.874          2.593          114.2         0.2517         -179.7          41.92          52.65
      0.14              -37.17          5.264           29.5          45.09         -7.874          2.592          114.2          0.264         -179.7          41.93          52.66
    0.1749              -37.17          5.264           29.5          45.09         -7.875          2.592          114.3         0.2772         -179.7          41.95          52.68
    0.2099              -37.17          5.264          29.51          45.09         -7.875          2.591          114.3         0.2913         -179.7          41.97          52.69
    0.2449              -37.17          5.263          29.51          45.09         -7.876           2.59          114.3         0.3064         -179.7          41.99          52.71
    0.2799              -37.17          5.263          29.52          45.09         -7.876           2.59          114.3         0.3225         -179.7          42.01          52.72
    0.3149              -37.17          5.262          29.53          45.09         -7.877          2.589          114.3         0.3398         -179.7          42.03          52.74
    0.3499              -37.17          5.262          29.53          45.09         -7.878          2.588          114.3         0.3584         -179.7          42.05          52.76
    0.3849              -37.18          5.261          29.54          45.09         -7.879          2.587          114.3         0.3784         -179.7          42.08          52.78
    0.4199              -37.18           5.26          29.55          45.09          -7.88          2.586          114.3         0.3999         -179.7          42.11          52.81
    0.4549              -37.18           5.26          29.56          45.09         -7.881          2.585          114.3         0.4232         -179.7          42.14          52.83
    0.4899              -37.18          5.259          29.57          45.09         -7.882          2.584          114.3         0.4484         -179.7          42.17          52.86
    0.5248              -37.18          5.258          29.58          45.09         -7.883          2.583          114.3         0.4757         -179.7           42.2          52.89
    0.5598              -37.18          5.257          29.59          45.09         -7.884          2.582          114.4         0.5054         -179.7          42.24          52.92
    0.5948              -37.18          5.257           29.6          45.09         -7.885           2.58          114.4         0.5378         -179.7          42.28          52.95
    0.6298              -37.18          5.256          29.61          45.09         -7.887          2.579          114.4         0.5731         -179.7          42.33          52.99
    0.6648              -37.19          5.254          29.63          45.09         -7.888          2.577          114.4         0.6118         -179.7          42.37          53.03
    0.6998              -37.19          5.253          29.64          45.09          -7.89          2.575          114.4         0.6543         -179.7          42.43          53.08
    0.7348              -37.19          5.252          29.66          45.09         -7.892          2.573          114.5          0.701         -179.7          42.49          53.13
    0.7698              -37.19           5.25          29.68          45.09         -7.894          2.571          114.5         0.7527         -179.7          42.55          53.18
    0.8048               -37.2          5.249           29.7          45.09         -7.896          2.569          114.5         0.8099         -179.6          42.63          53.24
    0.8397               -37.2          5.247          29.72          45.09         -7.899          2.566          114.5         0.8735         -179.6          42.71          53.31
    0.8747               -37.2          5.245          29.75          45.08         -7.902          2.563          114.6         0.9444         -179.6           42.8          53.38
    0.9097              -37.21          5.243          29.78          45.08         -7.905          2.559          114.6          1.024         -179.6           42.9          53.47
    0.9447              -37.21           5.24          29.81          45.08         -7.909          2.556          114.7          1.113         -179.6          43.01          53.56
    0.9797              -37.22          5.237          29.85          45.08         -7.913          2.551          114.7          1.214         -179.6          43.14          53.67
     1.015              -37.22          5.234          29.89          45.08         -7.917          2.546          114.8          1.329         -179.6          43.29          53.79
      1.05              -37.23           5.23          29.94          45.08         -7.923          2.541          114.8           1.46         -179.6          43.45          53.93
     1.085              -37.23          5.226           30.0          45.07         -7.929          2.534          114.9           1.61         -179.6          43.64          54.09
      1.12              -37.24          5.221          30.06          45.07         -7.936          2.527          115.0          1.784         -179.5          43.86          54.27
     1.155              -37.25          5.215          30.14          45.07         -7.944          2.518          115.1          1.985         -179.5          44.12          54.49
      1.19              -37.26          5.208          30.23          45.07         -7.954          2.508          115.2          2.221         -179.5          44.42          54.74
     1.225              -37.28            5.2          30.33          45.06         -7.965          2.496          115.3          2.499         -179.5          44.77          55.03
      1.26              -37.29          5.191          30.45          45.06         -7.978          2.482          115.5           2.83         -179.4          45.19          55.38
     1.295              -37.31          5.179           30.6          45.05         -7.995          2.465          115.7          3.226         -179.4          45.69           55.8
      1.33              -37.33          5.166          30.78          45.04         -8.014          2.444          115.9          3.705         -179.3           46.3          56.31
     1.365              -37.36          5.149           31.0          45.03         -8.038          2.419          116.2          4.291         -179.3          47.04          56.93
       1.4              -37.39          5.128          31.27          45.02         -8.067          2.388          116.5          5.013         -179.2          47.96          57.69
     1.435              -37.44          5.102           31.6          45.01         -8.104          2.349          116.9          5.914         -179.1           49.1          58.65
      1.47              -37.49           5.07          32.02          44.99          -8.15            2.3          117.5          7.049         -179.0          50.55          59.85
     1.505              -37.56          5.028          32.56          44.97         -8.209          2.238          118.2          8.492         -178.8          52.38          61.38
      1.54              -37.65          4.975          33.25          44.95         -8.284          2.159          119.0          10.34         -178.6          54.72          63.33
     1.575              -37.76          4.907          34.13          44.91          -8.38          2.057          120.2          12.71         -178.3          57.73          65.84
      1.61               -37.9          4.821          35.26          44.86         -8.503          1.927          121.6          15.74         -178.0          61.57          69.05
     1.645              -38.08          4.711          36.67          44.81         -8.658          1.763          123.4          19.54         -177.6           66.4          73.08
     1.679               -38.3          4.578           38.4          44.74         -8.846          1.564          125.6          24.18         -177.1          72.29           78.0
     1.714              -38.55          4.424           40.4          44.66         -9.065          1.332          128.2          29.56         -176.5          79.11          83.69
     1.749              -38.83          4.257          42.56          44.57         -9.302          1.082          130.9          35.38         -175.8           86.5          89.86
     1.784               -39.1           4.09          44.73          44.49         -9.538         0.8316          133.7           41.2         -175.2          93.89          96.02
     1.819              -39.36          3.936          46.73          44.41         -9.757         0.6003          136.2          46.58         -174.6          100.7          101.7
     1.854              -39.58          3.803          48.46          44.34         -9.946         0.4008          138.5          51.22         -174.1          106.6          106.6
     1.889              -39.76          3.693          49.87          44.28          -10.1         0.2371          140.3          55.02         -173.7          111.4          110.7
     1.924               -39.9          3.607           51.0          44.24         -10.22          0.107          141.7          58.05         -173.3          115.3          113.9
     1.959              -40.01          3.539          51.88           44.2         -10.32       0.005033          142.8          60.42         -173.1          118.3          116.4
     1.994               -40.1          3.486          52.57          44.17         -10.39       -0.07439          143.7          62.27         -172.9          120.6          118.3
     2.029              -40.17          3.444          53.11          44.15         -10.45        -0.1364          144.4          63.71         -172.7          122.5          119.9
     2.064              -40.22          3.412          53.53          44.14          -10.5        -0.1853          144.9          64.84         -172.6          123.9          121.1
     2.099              -40.26          3.386          53.86          44.12         -10.54         -0.224          145.4          65.75         -172.5          125.0          122.0
     2.134               -40.3          3.365          54.13          44.11         -10.57        -0.2551          145.7          66.47         -172.4          126.0          122.8
     2.169              -40.32          3.348          54.35           44.1         -10.59        -0.2802          146.0          67.05         -172.3          126.7          123.4
     2.204              -40.35          3.335          54.53           44.1         -10.61        -0.3009          146.2          67.53         -172.3          127.3          123.9
     2.239              -40.37          3.323          54.68          44.09         -10.63        -0.3179          146.4          67.93         -172.3          127.8          124.3
